<?xml version="1.0" ?><!DOCTYPE svg  PUBLIC '-//W3C//DTD SVG 1.1//EN'  'http://www.w3.org/Graphics/SVG/1.1/DTD/svg11.dtd'><svg enable-background="new 0 0 32 32" height="32px" id="Layer_1" version="1.1" viewBox="0 0 32 32" width="32px" xml:space="preserve" xmlns="http://www.w3.org/2000/svg" xmlns:xlink="http://www.w3.org/1999/xlink"><g id="check_mark"><circle cx="16" cy="16" fill="#ECEFF1" r="14.5"/><path d="M16,31C7.729,31,1,24.271,1,16S7.729,1,16,1c3.404,0,6.614,1.112,9.283,3.216   c0.217,0.171,0.254,0.485,0.083,0.702c-0.171,0.218-0.485,0.254-0.702,0.083C22.174,3.038,19.178,2,16,2C8.28,2,2,8.28,2,16   s6.28,14,14,14s14-6.28,14-14c0-1.714-0.306-3.387-0.91-4.974c-0.098-0.258,0.032-0.547,0.29-0.645   c0.257-0.099,0.547,0.03,0.646,0.29C30.672,12.371,31,14.164,31,16C31,24.271,24.271,31,16,31z" fill="#455A64"/><g><path d="M15,22.5c-0.002,0-0.004,0-0.006,0c-0.418-0.002-0.817-0.178-1.1-0.486l-5.5-6    c-0.56-0.61-0.519-1.56,0.092-2.119c0.611-0.561,1.56-0.518,2.119,0.092l4.403,4.803L27.402,5.478    c0.563-0.606,1.514-0.64,2.12-0.075s0.64,1.514,0.075,2.12l-13.5,14.5C15.814,22.327,15.416,22.5,15,22.5z" fill="#FFFFFF"/></g><path d="M29.598,7.522c0.376-0.404,0.463-0.955,0.315-1.448c-0.526-0.15-1.113-0.024-1.511,0.403L16.69,19.058   c-0.377,0.403-0.984,0.401-1.357-0.006l-0.282-0.308l-0.042,0.045l-3.653-3.984c-0.564-0.402-1.337-0.397-1.869,0.09   c-0.61,0.56-0.651,1.509-0.092,2.119l4.815,5.254c0.234,0.146,0.504,0.231,0.784,0.232c0.002,0,0.004,0,0.006,0   c0.416,0,0.814-0.173,1.098-0.478L29.598,7.522z" fill="#1DE9B6"/><g><path d="M15,23h-0.006c-0.56-0.002-1.094-0.239-1.469-0.649l-5.499-6c-0.746-0.813-0.69-2.081,0.122-2.826    c0.784-0.717,2.109-0.658,2.825,0.122l4.038,4.404L27.036,5.137c0.72-0.773,2.048-0.824,2.827-0.101    c0.807,0.751,0.852,2.02,0.101,2.827l-13.5,14.5C16.088,22.768,15.554,23,15,23z M9.499,14c-0.25,0-0.49,0.093-0.675,0.263    c-0.196,0.18-0.312,0.427-0.323,0.693c-0.012,0.267,0.082,0.522,0.262,0.719l5.5,6c0.188,0.205,0.455,0.323,0.733,0.324L15,22.5    V22c0.277,0,0.544-0.116,0.731-0.318l13.5-14.5c0.376-0.404,0.354-1.038-0.05-1.413c-0.392-0.365-1.051-0.341-1.413,0.049    L15.375,19.13c-0.096,0.103-0.231,0.121-0.368,0.159c-0.14,0-0.272-0.059-0.366-0.162l-4.403-4.803    C10.045,14.115,9.783,14,9.499,14z" fill="#455A64"/></g></g></svg>